<svg xmlns="http://www.w3.org/2000/svg" width="2508" height="627" viewBox="0 0 2508 627">
  <defs>
    <clipPath id="iconClip">
      <rect x="594" y="208" width="238" height="229" rx="38" ry="38"/>
    </clipPath>
  </defs>
  <rect x="594" y="208" width="238" height="229" rx="38" ry="38" fill="#000000"/>
  <g clip-path="url(#iconClip)">
    <rect x="546.50" y="370.80" width="235.00" height="22.40" fill="white" transform="rotate(44.00 664.00 382.00)"/>
    <rect x="535.31" y="331.85" width="305.00" height="22.40" fill="white" transform="rotate(44.00 687.81 343.05)"/>
    <rect x="558.50" y="306.80" width="335.00" height="22.40" fill="white" transform="rotate(44.00 726.00 318.00)"/>
  </g>
  <path d="M83 1265H543V0H810V1265H1269V1490H83Z" fill="#000000" transform="translate(902.00,392.00) scale(0.112305,-0.112305)"/>
  <path d="M138 0H398V658C398 800 505 900 650 900C696 900 751 893 773 887V1126C748 1130 707 1133 678 1133C550 1133 442 1060 402 931H390V1118H138Z" fill="#000000" transform="translate(1051.84,392.00) scale(0.112305,-0.112305)"/>
  <path d="M450 -23C624 -23 730 58 779 154H789V0H1038V747C1038 1045 792 1132 582 1132C358 1132 174 1037 108 840L349 791C376 865 453 932 583 932C710 932 778 868 778 759V754C778 677 696 674 502 653C286 630 76 566 76 314C76 94 237 -23 450 -23ZM517 170C407 170 328 220 328 317C328 419 416 462 533 478C600 487 745 505 780 533V401C780 277 677 170 517 170Z" fill="#000000" transform="translate(1141.14,392.00) scale(0.112305,-0.112305)"/>
  <path d="M138 0H398V685C398 834 492 914 606 914C716 914 795 840 795 726V0H1049V702C1049 827 1126 914 1252 914C1359 914 1446 852 1446 714V0H1706V754C1706 1002 1552 1136 1351 1136C1194 1136 1054 1054 994 893C946 1052 851 1136 707 1136C574 1136 448 1064 390 905L382 1118H138Z" fill="#000000" transform="translate(1271.21,392.00) scale(0.112305,-0.112305)"/>
  <path d="M138 -418H398V177H409C449 96 536 -20 728 -20C993 -20 1190 190 1190 557C1190 929 987 1132 729 1132C530 1132 448 1012 409 933H392V1118H138ZM658 194C488 194 393 340 393 558C393 776 486 918 658 918C834 918 923 766 923 558C923 348 832 194 658 194Z" fill="#000000" transform="translate(1476.30,392.00) scale(0.112305,-0.112305)"/>
  <path d="M623 -23C949 -23 1158 209 1158 553C1158 901 949 1132 623 1132C297 1132 89 901 89 553C89 209 297 -23 623 -23ZM623 188C442 188 354 350 354 554C354 760 442 921 623 921C805 921 894 760 894 554C894 350 805 188 623 188Z" fill="#000000" transform="translate(1617.83,392.00) scale(0.112305,-0.112305)"/>
  <path d="M726 1118H484V1205C484 1293 522 1343 620 1343C663 1343 697 1334 719 1327L772 1529C738 1541 664 1560 572 1560C380 1560 225 1448 225 1225V1118H20V914H225V0H484V914H726Z" fill="#000000" transform="translate(1755.87,392.00) scale(0.112305,-0.112305)"/>
  <path d="M127 -399C162 -413 227 -426 301 -426C503 -426 618 -323 686 -144L1166 1118H891L680 510C647 414 622 317 597 219C575 317 553 413 521 510L317 1118H39L461 -4L445 -75C418 -203 336 -235 219 -204L188 -196Z" fill="#000000" transform="translate(1843.26,392.00) scale(0.112305,-0.112305)"/>
</svg>
